<?xml version="1.0" encoding="UTF-8" standalone="no"?>
<!DOCTYPE svg PUBLIC "-//W3C//DTD SVG 1.1//EN" "http://www.w3.org/Graphics/SVG/1.1/DTD/svg11.dtd">
<svg width="100%" height="100%" viewBox="0 0 650 650" version="1.1" xmlns="http://www.w3.org/2000/svg" xmlns:xlink="http://www.w3.org/1999/xlink" xml:space="preserve" xmlns:serif="http://www.serif.com/" style="fill-rule:evenodd;clip-rule:evenodd;stroke-linejoin:round;stroke-miterlimit:2;">
    <g transform="matrix(1,0,0,1,-43.2027,-19.8115)">
        <path d="M665.081,200.416L665.081,488.814C665.081,573.188 596.579,641.69 512.205,641.69L223.807,641.69C139.432,641.69 70.931,573.188 70.931,488.814L70.931,200.416C70.931,116.041 139.432,47.54 223.807,47.54L512.205,47.54C596.579,47.54 665.081,116.041 665.081,200.416ZM647.727,200.416C647.727,125.619 587.002,64.893 512.205,64.893L223.807,64.893C149.01,64.893 88.285,125.619 88.285,200.416L88.285,488.814C88.285,563.61 149.01,624.336 223.807,624.336L512.205,624.336C587.002,624.336 647.727,563.61 647.727,488.814L647.727,200.416Z" style="fill:url(#_Linear1);"/>
    </g>
    <g transform="matrix(1,0,0,1,-4.68103,-0.520115)">
        <path d="M246.43,265.287C243.911,265.365 241.11,265.44 237.952,265.524C233.392,265.644 225.464,265.461 215.322,265.461L169.687,265.461L169.687,397.498L130.34,397.498L130.34,100.16L262.174,100.16C288.677,100.16 308.824,102.831 322.616,108.172C336.407,113.513 347.428,122.944 355.676,136.465C363.924,149.987 368.048,164.928 368.048,181.289C368.048,202.383 361.219,220.164 347.563,234.632C336.4,246.458 323.46,254.974 303.525,259.832L371.148,462.117C377.394,480.984 381.948,495.102 384.811,504.47C388.064,494.061 393.138,478.772 400.034,458.603L468.542,259.522L519.483,259.522L519.483,545.653L482.985,545.653L482.985,306.17L399.839,545.653L365.683,545.653L282.928,302.071L282.928,545.653L246.43,545.653L246.43,265.287ZM169.687,231.386L254.264,231.386C272.248,231.386 286.31,229.527 296.451,225.809C306.593,222.09 314.3,216.141 319.573,207.96C324.847,199.78 327.483,190.89 327.483,181.289C327.483,167.227 322.379,155.666 312.17,146.607C301.961,137.547 285.837,133.017 263.797,133.017L169.687,133.017L169.687,231.386Z" style="fill:#cdd6f4;"/>
    </g>
    <defs>
        <linearGradient id="_Linear1" x1="0" y1="0" x2="1" y2="0" gradientUnits="userSpaceOnUse" gradientTransform="matrix(587.203,589.645,-589.645,587.203,96.6433,61.732)"><stop offset="0" style="stop-color:#ff82dc;stop-opacity:1"/><stop offset="1" style="stop-color:#ffe7b9;stop-opacity:1"/></linearGradient>
    </defs>
</svg>
